#!OML:ASF G:\JayActor3\Patient Classification 1\Patient 1\Session 5\male.ASF
:FULLY-SPECIFIED
:DEGREES
875
root 34.7513 17.3048 -5.97347 117.405 -86.9414 -121.097
lowerback -0.130254 -0.448061 4.51649
upperback -0.0142659 -0.605595 -0.250309
thorax 0.00893507 -0.303689 -2.78985
lowerneck -4.0257 0.36985 2.03768
upperneck 11.7081 0.0363209 1.25648
head 4.59445 0.109648 0.0597626
rclavicle 8.77137e-015 -4.17448e-015
rhumerus -37.5718 -9.62206 -84.6041
rradius 25.4275
rwrist 5.79508
rhand -17.7474 -10.173
rfingers 7.12502
rthumb 8.51406 -39.9813
lclavicle 8.77137e-015 -4.17448e-015
lhumerus -38.3675 16.7129 75.0945
lradius 16.3819
lwrist 9.84509
lhand -19.1172 11.8204
lfingers 7.12502
lthumb 7.19207 41.6782
rfemur 9.49282 6.71727 26.7124
rtibia 37.5447
rfoot 24.8484 -13.9278
rtoes 9.14896
lfemur -10.6456 9.29172 -19.3917
ltibia 24.324
lfoot 6.80782 -8.91768
ltoes -21.5078
876
root 34.8938 17.2911 -5.98274 117.135 -86.5641 -120.681
lowerback -0.178038 -0.376843 4.9661
upperback -0.0332357 -0.514552 -0.17177
thorax 0.020494 -0.258668 -2.96177
lowerneck -4.00134 0.36737 1.98901
upperneck 11.5874 0.0389918 1.29222
head 4.54512 0.110476 0.0803696
rclavicle 3.66509e-015 8.74653e-015
rhumerus -37.4326 -9.36413 -84.8259
rradius 25.6012
rwrist 5.60346
rhand -17.7462 -10.3351
rfingers 7.12502
rthumb 8.51524 -40.1434
lclavicle 3.66509e-015 8.74653e-015
lhumerus -38.3251 16.6495 75.1823
lradius 16.4913
lwrist 10.0436
lhand -19.1324 11.8252
lfingers 7.12502
lthumb 7.17739 41.6835
rfemur 10.3528 7.05668 27.164
rtibia 35.6235
rfoot 23.7934 -12.3633
rtoes 7.33068
lfemur -11.512 9.10493 -19.0473
ltibia 24.6424
lfoot 6.92177 -8.87203
ltoes -21.4893
877
root 35.0405 17.2772 -5.99241 117.198 -86.1709 -120.589
lowerback -0.198404 -0.301246 5.42254
upperback -0.0524008 -0.416663 -0.0906551
thorax 0.0182206 -0.210726 -3.13448
lowerneck -3.96252 0.365381 1.93376
upperneck 11.4464 0.0438499 1.3289
head 4.48553 0.112002 0.102454
rclavicle -8.23714e-015 -4.17448e-015
rhumerus -37.264 -9.11 -85.0505
rradius 25.7263
rwrist 5.41043
rhand -17.8164 -10.3994
rfingers 7.12502
rthumb 8.44753 -40.2104
lclavicle -8.23714e-015 -4.17448e-015
lhumerus -38.2666 16.5931 75.2773
lradius 16.5851
lwrist 10.2049
lhand -19.1525 11.8406
lfingers 7.12502
lthumb 7.15792 41.6996
rfemur 11.1143 7.37445 27.6104
rtibia 33.9137
rfoot 22.4875 -10.8625
rtoes 5.42483
lfemur -12.3946 8.90057 -18.6917
ltibia 24.9359
lfoot 7.06792 -8.81577
ltoes -21.6497
878
root 35.1912 17.2636 -6.00269 117.552 -85.7853 -120.789
lowerback -0.188645 -0.22443 5.85664
upperback -0.0687264 -0.315452 -0.0109682
thorax 0.00363646 -0.161564 -3.29584
lowerneck -3.92135 0.365368 1.87021
upperneck 11.299 0.0524084 1.36509
head 4.42331 0.11497 0.125943
rclavicle 3.44146e-015 -2.22639e-014
rhumerus -37.0629 -8.8536 -85.2849
rradius 25.8065
rwrist 5.2176
rhand -17.9669 -10.4283
rfingers 7.12502
rthumb 8.30225 -40.2452
lclavicle 3.44146e-015 -2.22639e-014
lhumerus -38.1962 16.5318 75.3866
lradius 16.6706
lwrist 10.3455
lhand -19.1671 11.8532
lfingers 7.12502
lthumb 7.14383 41.7126
rfemur 11.7854 7.64904 28.0285
rtibia 32.3585
rfoot 21.0585 -9.59571
rtoes 3.47948
lfemur -13.2765 8.65793 -18.3429
ltibia 25.2053
lfoot 7.27391 -8.69899
ltoes -21.815
879
root 35.3457 17.2505 -6.01356 118.094 -85.4151 -121.179
lowerback -0.145876 -0.147661 6.26372
upperback -0.0837905 -0.211806 0.063676
thorax -0.0266538 -0.111787 -3.44702
lowerneck -3.88688 0.366875 1.80966
upperneck 11.1637 0.062784 1.39502
head 4.36703 0.118747 0.146859
rclavicle 1.92573e-015 8.74653e-015
rhumerus -36.829 -8.60993 -85.522
rradius 25.8302
rwrist 5.05499
rhand -18.1582 -10.4543
rfingers 7.12502
rthumb 8.11762 -40.2784
lclavicle 1.92573e-015 8.74653e-015
lhumerus -38.1127 16.4782 75.498
lradius 16.7347
lwrist 10.4442
lhand -19.1891 11.8656
lfingers 7.12502
lthumb 7.12257 41.7258
rfemur 12.376 7.87897 28.4155
rtibia 30.8722
rfoot 19.6084 -8.71824
rtoes 2.03949
lfemur -14.1582 8.38897 -18.0063
ltibia 25.4519
lfoot 7.56707 -8.50474
ltoes -21.8831
880
root 35.5035 17.2378 -6.0244 118.726 -85.0798 -121.662
lowerback -0.0790989 -0.0793952 6.63171
upperback -0.0916711 -0.117378 0.130735
thorax -0.0628448 -0.0667768 -3.58405
lowerneck -3.87231 0.371986 1.74493
upperneck 11.0442 0.0784562 1.41573
head 4.32061 0.12478 0.165714
rclavicle 1.26725e-015 9.93923e-016
rhumerus -36.5583 -8.3677 -85.7634
rradius 25.809
rwrist 4.9378
rhand -18.367 -10.4846
rfingers 7.12502
rthumb 7.91612 -40.3164
lclavicle 1.26725e-015 9.93923e-016
lhumerus -38.0142 16.4493 75.608
lradius 16.7784
lwrist 10.5098
lhand -19.2088 11.8605
lfingers 7.12502
lthumb 7.1036 41.7213
rfemur 12.8973 8.05864 28.7475
rtibia 29.3845
rfoot 18.2523 -8.13813
rtoes 0.961277
lfemur -15.0339 8.09916 -17.7019
ltibia 25.6718
lfoot 7.95039 -8.24896
ltoes -21.8794
881
root 35.6645 17.2261 -6.03536 119.35 -84.7835 -122.137
lowerback 0.0117316 -0.0217117 6.95851
upperback -0.0994139 -0.0344057 0.189617
thorax -0.112784 -0.0280459 -3.70647
lowerneck -3.86997 0.383422 1.68974
upperneck 10.9446 0.102299 1.42316
head 4.28396 0.13478 0.178869
rclavicle 4.10615e-015 -1.13307e-014
rhumerus -36.2711 -8.13239 -86.0053
rradius 25.7598
rwrist 4.8828
rhand -18.5709 -10.502
rfingers 7.12502
rthumb 7.71932 -40.3411
lclavicle 4.10615e-015 -1.13307e-014
lhumerus -37.9068 16.4336 75.7171
lradius 16.8008
lwrist 10.5462
lhand -19.2286 11.8622
lfingers 7.12502
lthumb 7.08449 41.7236
rfemur 13.3488 8.20266 29.0293
rtibia 27.8701
rfoot 17.0358 -7.72705
rtoes -0.0657536
lfemur -15.9084 7.79662 -17.4281
ltibia 25.8578
lfoot 8.44576 -7.93153
ltoes -21.7168
882
root 35.8288 17.2152 -6.04667 119.864 -84.5345 -122.499
lowerback 0.123688 0.022214 7.2399
upperback -0.111041 0.0330161 0.239676
thorax -0.17978 0.00214606 -3.81263
lowerneck -3.87547 0.398387 1.63984
upperneck 10.867 0.130169 1.42326
head 4.25688 0.14674 0.188892
rclavicle -2.45375e-015 3.3197e-014
rhumerus -35.9801 -7.91498 -86.2431
rradius 25.7048
rwrist 4.8988
rhand -18.7316 -10.5352
rfingers 7.12502
rthumb 7.56421 -40.3799
lclavicle -2.45375e-015 3.3197e-014
lhumerus -37.789 16.4593 75.8057
lradius 16.7863
lwrist 10.5196
lhand -19.2409 11.8579
lfingers 7.12502
lthumb 7.07257 41.7198
rfemur 13.7317 8.31134 29.2649
rtibia 26.3587
rfoot 15.9198 -7.34834
rtoes -1.07557
lfemur -16.789 7.49375 -17.1909
ltibia 25.9965
lfoot 9.05703 -7.59248
ltoes -21.5059
883
root 35.9965 17.2056 -6.05896 120.268 -84.3299 -122.737
lowerback 0.251105 0.0542638 7.47267
upperback -0.127409 0.0870004 0.283204
thorax -0.261604 0.0249033 -3.8984
lowerneck -3.88504 0.417144 1.5953
upperneck 10.7934 0.163312 1.41574
head 4.23214 0.161241 0.195678
rclavicle -2.68981e-015 -7.35503e-015
rhumerus -35.6957 -7.71463 -86.4766
rradius 25.6614
rwrist 4.97339
rhand -18.8361 -10.5643
rfingers 7.12502
rthumb 7.46331 -40.4126
lclavicle -2.68981e-015 -7.35503e-015
lhumerus -37.6575 16.4931 75.8937
lradius 16.7527
lwrist 10.4812
lhand -19.2461 11.8677
lfingers 7.12502
lthumb 7.06756 41.7297
rfemur 14.0313 8.3843 29.4667
rtibia 24.92
rfoot 14.7989 -6.98314
rtoes -1.87247
lfemur -17.6759 7.19492 -16.9806
ltibia 26.0735
lfoot 9.79835 -7.24177
ltoes -21.2427
884
root 36.1674 17.1978 -6.07292 120.562 -84.1755 -122.854
lowerback 0.391157 0.0766706 7.64502
upperback -0.151291 0.130325 0.320227
thorax -0.359463 0.04156 -3.95715
lowerneck -3.89183 0.438325 1.55272
upperneck 10.7254 0.198891 1.41175
head 4.20886 0.177166 0.203417
rclavicle -3.87009e-015 1.799e-014
rhumerus -35.4154 -7.55236 -86.7001
rradius 25.6115
rwrist 5.08426
rhand -18.9074 -10.5887
rfingers 7.12502
rthumb 7.39456 -40.4395
lclavicle -3.87009e-015 1.799e-014
lhumerus -37.5113 16.5168 75.9904
lradius 16.7025
lwrist 10.4258
lhand -19.241 11.9
lfingers 7.12502
lthumb 7.07256 41.7619
rfemur 14.2234 8.40636 29.6347
rtibia 23.6383
rfoot 13.6072 -6.60522
rtoes -2.51485
lfemur -18.5629 6.90212 -16.7978
ltibia 26.0701
lfoot 10.6925 -6.88103
ltoes -20.9115
